<svg width="50" height="50" viewBox="0 0 50 50" fill="none" xmlns="http://www.w3.org/2000/svg">
<g clip-path="url(#clip0_1_76)">
<path fill-rule="evenodd" clip-rule="evenodd" d="M21.8764 47.6014C22.6764 49.2014 23.8764 50.0014 25.4764 50.0014C27.1995 50.0014 28.461 49.2014 29.261 47.6014L30.3792 45.3764C31.3796 45.0614 32.3635 44.6946 33.3308 44.2761C36.3983 42.9479 38.82 41.3475 40.5958 39.475C42.3715 37.6029 43.4842 35.6498 43.9342 33.6161C44.4088 31.519 44.1369 29.4563 43.1181 27.4279C42.5454 26.2874 41.7958 25.3124 40.8696 24.5029L49.2919 7.74414C49.6612 7.00128 49.6919 6.22985 49.3842 5.42985C49.0765 4.57271 48.4304 3.91557 47.4458 3.45843C46.5227 3.05843 45.5688 3.00129 44.5842 3.287C43.5996 3.57271 42.9227 4.14414 42.5535 5.00128L34.2137 21.9551C33.9718 21.936 33.7248 21.9211 33.4727 21.9105C30.954 21.7401 27.8108 22.129 24.0433 23.0773C21.507 23.695 19.4385 24.0661 17.838 24.1906L13.5368 15.5306C14.5145 14.6595 15.7732 13.8906 17.3128 13.224C19.2184 12.3989 21.0557 11.9448 22.8247 11.8619C24.572 11.7358 26.3193 12.0038 28.0663 12.666C28.9058 12.9855 29.7532 13.039 30.6083 12.8263C31.5099 12.5935 32.1653 12.1521 32.5744 11.5021C33.0765 10.8118 33.1883 10.1329 32.9097 9.46543C32.6558 8.73464 32.1216 8.17785 31.3069 7.79503C29.089 6.75878 26.603 6.25896 23.8488 6.2956C21.073 6.2891 18.128 6.96003 15.0141 8.30839C13.5681 8.93446 12.2417 9.66271 11.0348 10.4931L8.30716 5.00128C7.81485 4.20128 7.10716 3.65843 6.18408 3.37271C5.32254 3.02986 4.43023 3.087 3.50717 3.54414C2.52255 4.00128 1.84563 4.62985 1.4764 5.42985C1.1687 6.22985 1.23024 7.02985 1.66101 7.82985L5.88866 16.1473C5.61935 16.7152 5.40097 17.3003 5.23354 17.9026C4.66904 19.9335 4.93947 22.0494 6.04477 24.2504C7.25843 26.6672 9.3677 28.276 12.3726 29.0765C12.406 29.0851 12.4396 29.0935 12.4733 29.1018L17.9826 39.9407C17.4309 39.85 16.864 39.8939 16.2819 40.0725C15.4949 40.3082 14.8597 40.8461 14.3761 41.6861C13.9638 42.4425 13.8954 43.2075 14.1709 43.9814C14.4464 44.7554 15.0038 45.3021 15.8433 45.6218C17.5353 46.2679 19.3944 46.6286 21.4204 46.7043L21.8764 47.6014ZM21.4204 46.7043C22.3284 46.7379 23.2699 46.7146 24.245 46.6339C26.3546 46.4186 28.3993 45.9993 30.3792 45.3764L34.3307 37.5139C35.6053 36.6654 36.5231 35.7768 37.084 34.8483C37.9569 33.3843 38.1899 31.983 37.7828 30.6446L40.8696 24.5029C40.4638 24.1484 40.0242 23.8257 39.5504 23.5347C38.1916 22.6557 36.4127 22.1292 34.2137 21.9551L31.6464 27.1744C29.8062 27.1766 27.4386 27.5514 24.5435 28.2988C23.0462 28.683 21.6368 28.9762 20.3153 29.1785L17.838 24.1906C17.6887 24.2022 17.5434 24.2117 17.4023 24.219C15.7727 24.2416 14.5056 24.0284 13.6012 23.5794C12.7431 23.1102 12.0757 22.4009 11.5989 21.4514C10.9054 20.0704 11.0855 18.6263 12.1393 17.1191C12.514 16.5565 12.9798 16.027 13.5368 15.5306L11.0348 10.4931C10.1856 11.0773 9.39566 11.7121 8.66485 12.3974C7.45285 13.5505 6.52743 14.8005 5.88866 16.1473L12.4733 29.1018C14.604 29.6271 17.218 29.6526 20.3153 29.1785L25.513 39.6432L31.6464 27.1744C32.2896 27.1737 32.8683 27.2184 33.3826 27.3087C35.4148 27.6372 36.7994 28.5352 37.5363 30.0025C37.6351 30.2149 37.7173 30.4289 37.7828 30.6446L34.3307 37.5139C33.3582 38.1611 32.1782 38.7854 30.7904 39.3861C29.2112 40.07 27.6442 40.5425 26.0893 40.8039C25.6794 40.8729 25.2703 40.9268 24.8621 40.9664C24.677 40.9843 24.492 40.9993 24.3072 41.0111C22.1478 41.1057 20.2751 40.8129 18.6891 40.1336C18.4564 40.0443 18.2209 39.98 17.9826 39.9407L21.4204 46.7043Z" fill="#505050" fill-opacity="0.5"/>
</g>
<defs>
<clipPath id="clip0_1_76">
<rect width="50" height="50" fill="white"/>
</clipPath>
</defs>
</svg>
